<svg id="svg" version="1.1" xmlns="http://www.w3.org/2000/svg" xmlns:xlink="http://www.w3.org/1999/xlink" width="400" height="134.6411576187239" viewBox="0, 0, 400,134.6411576187239"><g id="svgg"><path id="path1" d="M33.750 36.695 C 29.996 37.053,29.288 37.193,26.500 38.129 C 19.475 40.487,13.763 47.235,12.926 54.167 C 12.865 54.671,12.743 55.458,12.655 55.917 C 12.567 56.375,12.460 56.933,12.418 57.157 C 12.096 58.844,11.391 61.893,10.963 63.444 C 10.375 65.578,10.485 65.495,8.367 65.398 C 3.837 65.191,1.504 66.664,0.900 70.112 C 0.855 70.371,0.750 70.846,0.667 71.167 C 0.584 71.487,0.481 71.938,0.439 72.167 C 0.397 72.396,0.275 72.958,0.169 73.417 C -0.618 76.815,1.706 79.022,5.782 78.744 C 8.559 78.555,8.523 77.551,6.174 89.833 C 5.798 91.804,5.270 94.579,5.003 96.000 C 4.735 97.421,4.252 99.971,3.929 101.667 C -0.666 125.795,-0.483 124.308,0.969 125.716 C 2.155 126.865,2.595 126.942,8.657 127.058 C 16.453 127.207,17.505 126.788,18.419 123.167 C 19.058 120.632,19.161 120.180,19.399 118.833 C 19.628 117.541,20.143 114.820,21.512 107.667 C 21.784 106.246,22.155 104.296,22.337 103.333 C 22.518 102.371,22.740 101.208,22.830 100.750 C 22.919 100.292,23.036 99.654,23.088 99.333 C 23.141 99.013,23.290 98.225,23.419 97.583 C 23.549 96.942,23.699 96.154,23.753 95.833 C 23.807 95.513,23.917 94.950,23.996 94.583 C 24.076 94.217,24.185 93.630,24.238 93.280 C 24.291 92.930,24.444 92.105,24.578 91.447 C 24.711 90.789,24.853 90.063,24.894 89.833 C 25.016 89.136,26.151 83.139,26.330 82.250 C 26.422 81.792,26.542 81.123,26.597 80.763 C 26.853 79.081,26.784 79.099,33.500 79.001 C 39.063 78.919,39.278 78.904,40.103 78.531 C 41.472 77.911,42.557 76.512,42.840 75.005 C 42.918 74.590,43.101 73.837,43.247 73.333 C 43.955 70.896,43.749 68.235,42.772 67.194 C 41.571 65.914,41.000 65.821,34.056 65.776 C 29.466 65.746,29.784 65.834,29.992 64.653 C 30.079 64.156,30.234 63.188,30.336 62.500 C 30.439 61.813,30.633 60.538,30.768 59.667 C 30.902 58.796,31.056 57.633,31.108 57.083 C 31.544 52.541,33.201 51.170,38.333 51.107 C 43.208 51.047,43.853 50.208,45.164 42.217 C 45.636 39.338,44.435 37.552,41.643 36.983 C 40.470 36.744,35.235 36.553,33.750 36.695 M58.967 37.006 C 56.488 37.419,55.154 39.144,54.588 42.667 C 54.448 43.538,54.298 44.438,54.254 44.667 C 54.209 44.896,54.060 45.683,53.921 46.417 C 53.782 47.150,53.405 49.137,53.082 50.833 C 52.158 55.686,52.068 56.157,51.184 60.833 C 50.725 63.262,50.306 65.512,50.253 65.833 C 50.201 66.154,49.902 67.729,49.589 69.333 C 49.275 70.938,48.711 73.900,48.335 75.917 C 47.959 77.933,47.471 80.521,47.250 81.667 C 47.029 82.813,46.583 85.156,46.259 86.875 C 44.310 97.201,43.572 101.094,43.227 102.878 C 43.090 103.590,42.943 104.377,42.901 104.628 C 42.859 104.878,42.709 105.666,42.568 106.378 C 42.426 107.090,42.276 107.877,42.235 108.128 C 42.193 108.378,42.083 108.964,41.990 109.429 C 41.898 109.894,41.784 110.494,41.738 110.762 C 41.692 111.030,41.548 111.775,41.419 112.417 C 41.290 113.058,41.148 113.788,41.104 114.039 C 40.991 114.674,40.555 116.937,40.164 118.917 C 38.600 126.834,39.018 127.295,47.970 127.511 C 56.434 127.716,57.306 127.210,58.326 121.500 C 58.514 120.446,58.697 119.433,58.733 119.250 C 58.769 119.067,58.921 118.242,59.072 117.417 C 59.223 116.592,59.566 114.792,59.833 113.417 C 60.310 110.964,60.943 107.619,61.102 106.710 C 61.146 106.457,61.402 105.125,61.670 103.750 C 61.938 102.375,62.200 100.987,62.252 100.667 C 62.304 100.346,62.455 99.521,62.587 98.833 C 63.428 94.472,64.022 91.360,64.083 91.000 C 64.122 90.771,64.462 88.971,64.837 87.000 C 65.213 85.029,65.709 82.404,65.939 81.167 C 66.169 79.929,66.613 77.604,66.924 76.000 C 67.236 74.396,67.675 72.071,67.900 70.833 C 68.125 69.596,68.955 65.208,69.745 61.083 C 70.535 56.958,71.327 52.796,71.505 51.833 C 71.683 50.871,71.938 49.521,72.073 48.833 C 72.207 48.146,72.471 46.758,72.659 45.750 C 72.847 44.742,73.036 43.729,73.078 43.500 C 73.921 38.998,72.885 37.255,69.257 37.074 C 66.306 36.927,59.703 36.883,58.967 37.006 M100.333 69.367 C 96.424 70.076,91.319 71.827,89.250 73.166 C 88.975 73.344,88.525 73.615,88.250 73.769 C 81.419 77.579,74.876 86.214,72.982 93.917 C 72.802 94.650,72.508 95.664,72.330 96.170 C 71.433 98.712,71.131 107.494,71.846 110.235 C 75.149 122.902,84.538 128.715,100.583 128.026 C 104.617 127.853,109.431 126.485,113.917 124.238 C 121.595 120.392,127.507 114.043,130.046 106.917 C 130.176 106.550,130.476 105.763,130.711 105.167 C 130.946 104.571,131.328 103.333,131.560 102.417 C 131.793 101.500,132.102 100.337,132.249 99.833 C 132.876 97.678,133.094 90.717,132.609 88.325 C 132.470 87.642,132.307 86.671,132.246 86.167 C 132.047 84.518,130.959 81.939,129.193 78.930 C 124.745 71.348,112.240 67.204,100.333 69.367 M175.083 69.823 C 171.486 70.172,164.711 72.910,163.345 74.567 C 163.215 74.725,162.891 74.967,162.627 75.104 C 162.363 75.240,161.862 75.609,161.515 75.923 L 160.883 76.494 160.960 75.026 C 161.145 71.491,159.999 70.857,153.167 70.714 C 145.796 70.560,143.791 71.444,143.244 75.087 C 143.189 75.452,143.079 76.012,142.999 76.333 C 142.918 76.654,142.805 77.254,142.746 77.667 C 142.688 78.079,142.539 78.867,142.415 79.417 C 142.291 79.967,142.146 80.717,142.093 81.083 C 142.040 81.450,141.888 82.275,141.756 82.917 C 141.521 84.061,141.091 86.305,140.935 87.206 C 140.892 87.456,140.742 88.244,140.603 88.956 C 140.304 90.481,139.300 95.809,138.821 98.417 C 138.635 99.425,138.378 100.775,138.250 101.417 C 138.064 102.350,137.557 105.045,136.902 108.583 C 136.676 109.800,136.261 111.986,136.000 113.333 C 135.831 114.204,135.569 115.592,135.418 116.417 C 135.267 117.242,135.036 118.455,134.906 119.114 C 134.775 119.772,134.626 120.597,134.575 120.947 C 134.523 121.297,134.447 121.699,134.407 121.840 C 134.172 122.658,134.314 124.476,134.668 125.169 C 135.563 126.923,136.169 127.103,141.933 127.328 C 151.098 127.686,152.062 127.147,153.252 121.000 C 153.402 120.221,153.632 119.058,153.762 118.417 C 153.892 117.775,154.111 116.612,154.248 115.833 C 154.587 113.905,155.550 108.797,155.772 107.750 C 155.811 107.567,155.956 106.667,156.094 105.750 C 156.377 103.872,157.238 100.074,157.597 99.121 C 157.727 98.776,157.906 98.172,157.993 97.779 C 158.210 96.812,159.691 93.718,160.276 93.010 C 161.826 91.135,163.283 89.627,163.972 89.185 C 165.623 88.125,168.148 87.111,169.583 86.931 C 170.042 86.874,170.717 86.788,171.083 86.741 C 171.450 86.693,173.100 86.638,174.750 86.618 C 179.849 86.557,180.407 85.938,181.580 79.039 C 181.631 78.740,181.789 77.952,181.932 77.289 C 182.712 73.665,182.348 71.593,180.745 70.531 C 180.304 70.239,179.862 69.994,179.763 69.987 C 179.664 69.980,179.433 69.940,179.250 69.899 C 178.546 69.739,176.360 69.699,175.083 69.823 M273.000 70.876 C 272.954 70.921,272.429 71.001,271.833 71.055 C 265.676 71.608,258.839 74.377,255.351 77.732 C 249.621 83.241,247.614 92.044,250.838 97.518 C 252.283 99.971,255.149 102.106,258.500 103.226 C 261.183 104.122,265.847 105.481,266.612 105.590 C 267.472 105.711,268.732 106.005,270.083 106.398 C 270.542 106.531,271.742 106.864,272.750 107.137 C 278.948 108.817,280.584 110.453,278.946 113.333 C 276.695 117.293,267.929 118.262,263.869 115.000 C 262.712 114.071,262.468 113.657,261.902 111.667 C 261.275 109.463,260.368 108.464,258.667 108.106 C 257.292 107.816,248.040 107.793,247.184 108.078 C 242.833 109.523,243.254 118.036,247.939 123.373 C 250.565 126.363,256.398 128.885,262.500 129.668 C 263.829 129.839,265.588 130.066,266.409 130.173 C 267.521 130.317,268.287 130.320,269.409 130.183 C 270.238 130.081,271.217 130.013,271.583 130.030 C 272.438 130.071,275.424 129.749,277.017 129.444 C 277.695 129.314,278.770 129.112,279.406 128.996 C 280.447 128.806,282.253 128.242,283.833 127.615 C 284.154 127.488,284.652 127.293,284.939 127.182 C 292.393 124.310,297.615 117.695,298.737 109.705 C 299.584 103.670,296.849 99.044,290.819 96.314 C 286.793 94.490,285.815 94.187,279.333 92.751 C 269.408 90.553,266.759 88.722,269.460 85.925 C 272.260 83.025,281.965 83.514,282.738 86.594 C 283.061 87.882,284.214 89.832,285.029 90.468 C 286.256 91.427,296.194 91.817,298.397 90.993 C 301.514 89.827,301.903 85.287,299.331 80.083 C 296.970 75.305,292.611 72.642,285.000 71.330 C 283.028 70.990,273.264 70.621,273.000 70.876 M191.583 71.726 C 189.612 72.671,189.006 73.800,188.329 77.787 C 188.019 79.616,187.660 81.532,186.324 88.500 C 186.033 90.013,185.761 91.475,185.717 91.750 C 185.674 92.025,185.153 94.688,184.559 97.667 C 183.966 100.646,183.442 103.383,183.394 103.750 C 183.346 104.117,183.242 104.679,183.163 105.000 C 181.408 112.077,182.204 119.763,185.069 123.405 C 190.920 130.841,205.860 131.589,215.458 124.926 L 217.000 123.856 217.001 124.553 C 217.005 127.643,218.037 128.172,224.402 128.349 C 232.941 128.585,233.926 128.103,234.818 123.246 C 235.003 122.240,235.686 118.642,236.337 115.250 C 236.987 111.858,237.664 108.315,237.843 107.375 C 238.431 104.272,238.810 102.263,238.996 101.250 C 239.098 100.700,239.287 99.725,239.417 99.083 C 239.548 98.442,239.882 96.679,240.160 95.167 C 240.439 93.654,240.778 91.854,240.914 91.167 C 241.050 90.479,241.193 89.729,241.232 89.500 C 241.271 89.271,241.646 87.283,242.065 85.083 C 242.484 82.883,242.873 80.783,242.929 80.417 C 242.985 80.050,243.173 79.075,243.346 78.250 C 244.096 74.681,243.557 73.047,241.333 72.152 C 240.211 71.699,228.769 71.818,227.884 72.291 C 226.222 73.179,225.390 74.572,224.924 77.250 C 224.876 77.525,224.799 77.938,224.752 78.167 C 224.706 78.396,224.592 78.996,224.500 79.500 C 224.303 80.573,224.253 80.835,223.923 82.500 C 223.787 83.188,223.643 83.938,223.603 84.167 C 223.564 84.396,223.154 86.571,222.693 89.000 C 221.922 93.059,221.413 95.780,221.228 96.833 C 218.888 110.152,215.666 114.465,207.994 114.554 C 202.390 114.619,200.446 111.160,202.063 104.000 C 202.115 103.771,202.198 103.283,202.248 102.917 C 202.386 101.907,202.642 100.470,203.095 98.167 C 203.320 97.021,203.622 95.446,203.766 94.667 C 203.910 93.888,204.166 92.537,204.335 91.667 C 204.503 90.796,204.796 89.258,204.985 88.250 C 205.175 87.242,205.551 85.254,205.823 83.833 C 207.082 77.239,207.204 76.432,207.130 75.147 C 207.030 73.393,206.520 72.525,205.232 71.915 L 204.297 71.473 198.357 71.400 L 192.417 71.327 191.583 71.726 M108.112 83.585 C 112.838 84.930,114.752 88.783,114.167 95.771 C 113.979 98.018,113.806 99.064,113.508 99.750 C 113.429 99.933,113.236 100.646,113.080 101.333 C 112.924 102.021,112.626 102.958,112.416 103.417 C 110.997 106.521,110.644 107.193,109.949 108.107 C 109.034 109.310,106.878 111.366,106.117 111.760 C 103.635 113.048,103.695 113.027,100.644 113.677 C 100.110 113.791,99.317 113.831,98.810 113.771 C 98.319 113.712,97.429 113.605,96.833 113.533 C 93.327 113.110,91.125 110.721,90.249 106.389 C 89.887 104.595,90.090 99.733,90.590 98.253 C 90.714 97.885,90.857 97.347,90.907 97.058 C 91.459 93.892,93.530 89.728,95.714 87.393 C 98.794 84.100,104.147 82.456,108.112 83.585 " stroke="none" fill="#04040c" fill-rule="evenodd"></path><path id="path2" d="M201.044 71.453 C 201.297 71.491,201.672 71.490,201.877 71.451 C 202.082 71.411,201.875 71.380,201.417 71.381 C 200.958 71.382,200.791 71.415,201.044 71.453 " stroke="none" fill="#040c0c" fill-rule="evenodd"></path><path id="path3" d="" stroke="none" fill="#406028" fill-rule="evenodd"></path><path id="path4" d="" stroke="none" fill="#242028" fill-rule="evenodd"></path><path id="path0" d="M351.218 0.248 C 344.154 1.529,339.214 6.415,336.989 14.321 C 335.962 17.968,334.395 18.924,330.720 18.142 C 313.077 14.391,301.619 33.405,313.568 46.606 L 314.494 47.630 313.706 47.744 C 312.196 47.963,309.141 48.700,306.667 49.442 C 304.530 50.082,304.543 50.078,302.333 50.926 C 295.171 53.675,290.255 57.904,287.864 63.370 C 286.495 66.500,286.418 67.500,287.546 67.500 C 289.647 67.500,295.160 69.765,297.681 71.663 C 298.187 72.045,298.730 72.323,298.917 72.297 C 299.273 72.247,299.261 72.298,299.665 69.090 C 300.333 63.788,304.412 60.331,313.071 57.730 C 314.857 57.194,314.907 57.207,314.330 58.062 C 309.822 64.742,310.574 74.147,316.065 79.748 C 320.627 84.403,326.764 85.967,333.642 84.227 C 336.736 83.445,338.889 84.297,339.755 86.647 C 340.597 88.930,342.396 91.553,344.499 93.562 C 353.871 102.516,368.654 98.415,372.747 85.725 C 373.813 82.417,375.331 81.141,377.899 81.390 C 378.459 81.445,379.667 81.564,380.583 81.654 C 396.675 83.246,405.654 66.099,395.413 53.333 C 393.014 50.342,392.938 48.611,395.104 46.250 C 407.260 33.002,395.290 13.313,377.667 17.567 C 374.257 18.390,372.229 17.502,371.421 14.833 C 369.861 9.687,368.574 7.330,365.926 4.768 C 361.942 0.913,356.599 -0.729,351.218 0.248 M355.655 11.078 C 360.209 12.290,362.126 18.178,360.919 27.250 C 360.270 32.127,361.870 34.867,365.519 35.129 C 367.393 35.264,368.020 34.967,372.500 31.827 C 379.445 26.960,386.161 26.732,388.473 31.284 C 390.504 35.282,387.588 39.939,381.167 42.954 C 377.463 44.693,376.762 45.072,376.191 45.642 C 374.376 47.458,374.170 50.518,375.713 52.757 C 376.308 53.620,376.481 53.727,380.000 55.407 C 388.272 59.358,391.219 64.948,387.167 69.000 C 383.933 72.234,378.602 71.282,371.333 66.172 C 369.491 64.878,368.335 64.602,366.625 65.050 C 363.314 65.918,361.906 68.452,362.576 72.333 C 364.120 81.266,361.535 87.429,356.253 87.413 C 351.192 87.397,348.727 82.723,348.872 73.417 C 348.923 70.180,348.831 69.862,347.395 68.328 C 345.136 65.912,341.884 66.135,338.836 68.914 C 337.382 70.239,334.948 71.937,333.337 72.750 C 324.550 77.184,318.444 68.841,325.312 61.786 C 326.900 60.154,330.217 57.890,333.198 56.400 C 334.235 55.882,335.308 55.291,335.583 55.086 C 336.000 54.776,336.668 54.637,339.583 54.254 C 345.385 53.491,346.757 53.524,348.316 54.464 C 350.142 55.566,351.053 56.011,352.000 56.263 C 361.008 58.661,367.354 47.660,360.764 41.070 C 357.065 37.370,351.817 37.448,347.673 41.264 C 345.764 43.022,344.853 43.404,341.583 43.819 C 340.850 43.912,338.525 44.216,336.417 44.493 C 330.970 45.210,330.293 45.061,324.917 41.952 C 318.136 38.030,317.915 30.313,324.538 28.751 C 327.877 27.964,332.084 29.432,337.965 33.437 C 340.843 35.397,340.860 35.404,342.417 35.400 C 346.352 35.390,348.582 32.301,347.761 28.000 C 345.677 17.081,349.269 9.379,355.655 11.078 M310.551 88.689 C 309.237 88.878,305.830 89.736,305.233 90.028 C 304.968 90.157,304.576 90.632,304.292 91.167 C 303.397 92.851,300.585 95.167,299.434 95.167 C 299.108 95.167,298.500 95.748,298.500 96.060 C 298.500 96.185,298.984 96.868,299.575 97.580 C 303.400 102.180,304.163 108.128,301.817 115.059 C 301.130 117.091,301.009 117.614,301.145 117.976 C 301.332 118.475,302.436 121.157,304.072 125.083 C 304.683 126.550,305.604 128.762,306.119 130.000 C 308.071 134.693,309.990 135.428,314.986 133.395 C 319.460 131.573,320.729 129.279,319.213 125.750 C 318.938 125.108,318.106 123.121,317.365 121.333 C 316.624 119.546,315.142 115.983,314.071 113.417 C 312.110 108.715,310.951 105.920,309.899 103.359 C 309.585 102.594,309.253 101.827,309.160 101.655 C 308.963 101.286,309.222 101.154,312.000 100.212 C 315.412 99.056,318.746 99.523,319.961 101.329 C 320.455 102.063,320.414 102.243,319.165 104.766 C 317.517 108.096,317.798 109.299,320.705 111.361 C 324.700 114.193,326.446 113.430,328.937 107.763 C 331.364 102.245,330.945 97.183,327.797 93.977 C 323.859 89.964,316.781 87.795,310.551 88.689 " stroke="none" fill="#3c7c44" fill-rule="evenodd"></path><path id="path1" d="M33.750 36.695 C 29.996 37.053,29.288 37.193,26.500 38.129 C 19.475 40.487,13.763 47.235,12.926 54.167 C 12.865 54.671,12.743 55.458,12.655 55.917 C 12.567 56.375,12.460 56.933,12.418 57.157 C 12.096 58.844,11.391 61.893,10.963 63.444 C 10.375 65.578,10.485 65.495,8.367 65.398 C 3.837 65.191,1.504 66.664,0.900 70.112 C 0.855 70.371,0.750 70.846,0.667 71.167 C 0.584 71.487,0.481 71.938,0.439 72.167 C 0.397 72.396,0.275 72.958,0.169 73.417 C -0.618 76.815,1.706 79.022,5.782 78.744 C 8.559 78.555,8.523 77.551,6.174 89.833 C 5.798 91.804,5.270 94.579,5.003 96.000 C 4.735 97.421,4.252 99.971,3.929 101.667 C -0.666 125.795,-0.483 124.308,0.969 125.716 C 2.155 126.865,2.595 126.942,8.657 127.058 C 16.453 127.207,17.505 126.788,18.419 123.167 C 19.058 120.632,19.161 120.180,19.399 118.833 C 19.628 117.541,20.143 114.820,21.512 107.667 C 21.784 106.246,22.155 104.296,22.337 103.333 C 22.518 102.371,22.740 101.208,22.830 100.750 C 22.919 100.292,23.036 99.654,23.088 99.333 C 23.141 99.013,23.290 98.225,23.419 97.583 C 23.549 96.942,23.699 96.154,23.753 95.833 C 23.807 95.513,23.917 94.950,23.996 94.583 C 24.076 94.217,24.185 93.630,24.238 93.280 C 24.291 92.930,24.444 92.105,24.578 91.447 C 24.711 90.789,24.853 90.063,24.894 89.833 C 25.016 89.136,26.151 83.139,26.330 82.250 C 26.422 81.792,26.542 81.123,26.597 80.763 C 26.853 79.081,26.784 79.099,33.500 79.001 C 39.063 78.919,39.278 78.904,40.103 78.531 C 41.472 77.911,42.557 76.512,42.840 75.005 C 42.918 74.590,43.101 73.837,43.247 73.333 C 43.955 70.896,43.749 68.235,42.772 67.194 C 41.571 65.914,41.000 65.821,34.056 65.776 C 29.466 65.746,29.784 65.834,29.992 64.653 C 30.079 64.156,30.234 63.188,30.336 62.500 C 30.439 61.813,30.633 60.538,30.768 59.667 C 30.902 58.796,31.056 57.633,31.108 57.083 C 31.544 52.541,33.201 51.170,38.333 51.107 C 43.208 51.047,43.853 50.208,45.164 42.217 C 45.636 39.338,44.435 37.552,41.643 36.983 C 40.470 36.744,35.235 36.553,33.750 36.695 M58.967 37.006 C 56.488 37.419,55.154 39.144,54.588 42.667 C 54.448 43.538,54.298 44.438,54.254 44.667 C 54.209 44.896,54.060 45.683,53.921 46.417 C 53.782 47.150,53.405 49.137,53.082 50.833 C 52.158 55.686,52.068 56.157,51.184 60.833 C 50.725 63.262,50.306 65.512,50.253 65.833 C 50.201 66.154,49.902 67.729,49.589 69.333 C 49.275 70.938,48.711 73.900,48.335 75.917 C 47.959 77.933,47.471 80.521,47.250 81.667 C 47.029 82.813,46.583 85.156,46.259 86.875 C 44.310 97.201,43.572 101.094,43.227 102.878 C 43.090 103.590,42.943 104.377,42.901 104.628 C 42.859 104.878,42.709 105.666,42.568 106.378 C 42.426 107.090,42.276 107.877,42.235 108.128 C 42.193 108.378,42.083 108.964,41.990 109.429 C 41.898 109.894,41.784 110.494,41.738 110.762 C 41.692 111.030,41.548 111.775,41.419 112.417 C 41.290 113.058,41.148 113.788,41.104 114.039 C 40.991 114.674,40.555 116.937,40.164 118.917 C 38.600 126.834,39.018 127.295,47.970 127.511 C 56.434 127.716,57.306 127.210,58.326 121.500 C 58.514 120.446,58.697 119.433,58.733 119.250 C 58.769 119.067,58.921 118.242,59.072 117.417 C 59.223 116.592,59.566 114.792,59.833 113.417 C 60.310 110.964,60.943 107.619,61.102 106.710 C 61.146 106.457,61.402 105.125,61.670 103.750 C 61.938 102.375,62.200 100.987,62.252 100.667 C 62.304 100.346,62.455 99.521,62.587 98.833 C 63.428 94.472,64.022 91.360,64.083 91.000 C 64.122 90.771,64.462 88.971,64.837 87.000 C 65.213 85.029,65.709 82.404,65.939 81.167 C 66.169 79.929,66.613 77.604,66.924 76.000 C 67.236 74.396,67.675 72.071,67.900 70.833 C 68.125 69.596,68.955 65.208,69.745 61.083 C 70.535 56.958,71.327 52.796,71.505 51.833 C 71.683 50.871,71.938 49.521,72.073 48.833 C 72.207 48.146,72.471 46.758,72.659 45.750 C 72.847 44.742,73.036 43.729,73.078 43.500 C 73.921 38.998,72.885 37.255,69.257 37.074 C 66.306 36.927,59.703 36.883,58.967 37.006 M100.333 69.367 C 96.424 70.076,91.319 71.827,89.250 73.166 C 88.975 73.344,88.525 73.615,88.250 73.769 C 81.419 77.579,74.876 86.214,72.982 93.917 C 72.802 94.650,72.508 95.664,72.330 96.170 C 71.433 98.712,71.131 107.494,71.846 110.235 C 75.149 122.902,84.538 128.715,100.583 128.026 C 104.617 127.853,109.431 126.485,113.917 124.238 C 121.595 120.392,127.507 114.043,130.046 106.917 C 130.176 106.550,130.476 105.763,130.711 105.167 C 130.946 104.571,131.328 103.333,131.560 102.417 C 131.793 101.500,132.102 100.337,132.249 99.833 C 132.876 97.678,133.094 90.717,132.609 88.325 C 132.470 87.642,132.307 86.671,132.246 86.167 C 132.047 84.518,130.959 81.939,129.193 78.930 C 124.745 71.348,112.240 67.204,100.333 69.367 M175.083 69.823 C 171.486 70.172,164.711 72.910,163.345 74.567 C 163.215 74.725,162.891 74.967,162.627 75.104 C 162.363 75.240,161.862 75.609,161.515 75.923 L 160.883 76.494 160.960 75.026 C 161.145 71.491,159.999 70.857,153.167 70.714 C 145.796 70.560,143.791 71.444,143.244 75.087 C 143.189 75.452,143.079 76.012,142.999 76.333 C 142.918 76.654,142.805 77.254,142.746 77.667 C 142.688 78.079,142.539 78.867,142.415 79.417 C 142.291 79.967,142.146 80.717,142.093 81.083 C 142.040 81.450,141.888 82.275,141.756 82.917 C 141.521 84.061,141.091 86.305,140.935 87.206 C 140.892 87.456,140.742 88.244,140.603 88.956 C 140.304 90.481,139.300 95.809,138.821 98.417 C 138.635 99.425,138.378 100.775,138.250 101.417 C 138.064 102.350,137.557 105.045,136.902 108.583 C 136.676 109.800,136.261 111.986,136.000 113.333 C 135.831 114.204,135.569 115.592,135.418 116.417 C 135.267 117.242,135.036 118.455,134.906 119.114 C 134.775 119.772,134.626 120.597,134.575 120.947 C 134.523 121.297,134.447 121.699,134.407 121.840 C 134.172 122.658,134.314 124.476,134.668 125.169 C 135.563 126.923,136.169 127.103,141.933 127.328 C 151.098 127.686,152.062 127.147,153.252 121.000 C 153.402 120.221,153.632 119.058,153.762 118.417 C 153.892 117.775,154.111 116.612,154.248 115.833 C 154.587 113.905,155.550 108.797,155.772 107.750 C 155.811 107.567,155.956 106.667,156.094 105.750 C 156.377 103.872,157.238 100.074,157.597 99.121 C 157.727 98.776,157.906 98.172,157.993 97.779 C 158.210 96.812,159.691 93.718,160.276 93.010 C 161.826 91.135,163.283 89.627,163.972 89.185 C 165.623 88.125,168.148 87.111,169.583 86.931 C 170.042 86.874,170.717 86.788,171.083 86.741 C 171.450 86.693,173.100 86.638,174.750 86.618 C 179.849 86.557,180.407 85.938,181.580 79.039 C 181.631 78.740,181.789 77.952,181.932 77.289 C 182.712 73.665,182.348 71.593,180.745 70.531 C 180.304 70.239,179.862 69.994,179.763 69.987 C 179.664 69.980,179.433 69.940,179.250 69.899 C 178.546 69.739,176.360 69.699,175.083 69.823 M273.000 70.876 C 272.954 70.921,272.429 71.001,271.833 71.055 C 265.676 71.608,258.839 74.377,255.351 77.732 C 249.621 83.241,247.614 92.044,250.838 97.518 C 252.283 99.971,255.149 102.106,258.500 103.226 C 261.183 104.122,265.847 105.481,266.612 105.590 C 267.472 105.711,268.732 106.005,270.083 106.398 C 270.542 106.531,271.742 106.864,272.750 107.137 C 278.948 108.817,280.584 110.453,278.946 113.333 C 276.695 117.293,267.929 118.262,263.869 115.000 C 262.712 114.071,262.468 113.657,261.902 111.667 C 261.275 109.463,260.368 108.464,258.667 108.106 C 257.292 107.816,248.040 107.793,247.184 108.078 C 242.833 109.523,243.254 118.036,247.939 123.373 C 250.565 126.363,256.398 128.885,262.500 129.668 C 263.829 129.839,265.588 130.066,266.409 130.173 C 267.521 130.317,268.287 130.320,269.409 130.183 C 270.238 130.081,271.217 130.013,271.583 130.030 C 272.438 130.071,275.424 129.749,277.017 129.444 C 277.695 129.314,278.770 129.112,279.406 128.996 C 280.447 128.806,282.253 128.242,283.833 127.615 C 284.154 127.488,284.652 127.293,284.939 127.182 C 292.393 124.310,297.615 117.695,298.737 109.705 C 299.584 103.670,296.849 99.044,290.819 96.314 C 286.793 94.490,285.815 94.187,279.333 92.751 C 269.408 90.553,266.759 88.722,269.460 85.925 C 272.260 83.025,281.965 83.514,282.738 86.594 C 283.061 87.882,284.214 89.832,285.029 90.468 C 286.256 91.427,296.194 91.817,298.397 90.993 C 301.514 89.827,301.903 85.287,299.331 80.083 C 296.970 75.305,292.611 72.642,285.000 71.330 C 283.028 70.990,273.264 70.621,273.000 70.876 M191.583 71.726 C 189.612 72.671,189.006 73.800,188.329 77.787 C 188.019 79.616,187.660 81.532,186.324 88.500 C 186.033 90.013,185.761 91.475,185.717 91.750 C 185.674 92.025,185.153 94.688,184.559 97.667 C 183.966 100.646,183.442 103.383,183.394 103.750 C 183.346 104.117,183.242 104.679,183.163 105.000 C 181.408 112.077,182.204 119.763,185.069 123.405 C 190.920 130.841,205.860 131.589,215.458 124.926 L 217.000 123.856 217.001 124.553 C 217.005 127.643,218.037 128.172,224.402 128.349 C 232.941 128.585,233.926 128.103,234.818 123.246 C 235.003 122.240,235.686 118.642,236.337 115.250 C 236.987 111.858,237.664 108.315,237.843 107.375 C 238.431 104.272,238.810 102.263,238.996 101.250 C 239.098 100.700,239.287 99.725,239.417 99.083 C 239.548 98.442,239.882 96.679,240.160 95.167 C 240.439 93.654,240.778 91.854,240.914 91.167 C 241.050 90.479,241.193 89.729,241.232 89.500 C 241.271 89.271,241.646 87.283,242.065 85.083 C 242.484 82.883,242.873 80.783,242.929 80.417 C 242.985 80.050,243.173 79.075,243.346 78.250 C 244.096 74.681,243.557 73.047,241.333 72.152 C 240.211 71.699,228.769 71.818,227.884 72.291 C 226.222 73.179,225.390 74.572,224.924 77.250 C 224.876 77.525,224.799 77.938,224.752 78.167 C 224.706 78.396,224.592 78.996,224.500 79.500 C 224.303 80.573,224.253 80.835,223.923 82.500 C 223.787 83.188,223.643 83.938,223.603 84.167 C 223.564 84.396,223.154 86.571,222.693 89.000 C 221.922 93.059,221.413 95.780,221.228 96.833 C 218.888 110.152,215.666 114.465,207.994 114.554 C 202.390 114.619,200.446 111.160,202.063 104.000 C 202.115 103.771,202.198 103.283,202.248 102.917 C 202.386 101.907,202.642 100.470,203.095 98.167 C 203.320 97.021,203.622 95.446,203.766 94.667 C 203.910 93.888,204.166 92.537,204.335 91.667 C 204.503 90.796,204.796 89.258,204.985 88.250 C 205.175 87.242,205.551 85.254,205.823 83.833 C 207.082 77.239,207.204 76.432,207.130 75.147 C 207.030 73.393,206.520 72.525,205.232 71.915 L 204.297 71.473 198.357 71.400 L 192.417 71.327 191.583 71.726 M108.112 83.585 C 112.838 84.930,114.752 88.783,114.167 95.771 C 113.979 98.018,113.806 99.064,113.508 99.750 C 113.429 99.933,113.236 100.646,113.080 101.333 C 112.924 102.021,112.626 102.958,112.416 103.417 C 110.997 106.521,110.644 107.193,109.949 108.107 C 109.034 109.310,106.878 111.366,106.117 111.760 C 103.635 113.048,103.695 113.027,100.644 113.677 C 100.110 113.791,99.317 113.831,98.810 113.771 C 98.319 113.712,97.429 113.605,96.833 113.533 C 93.327 113.110,91.125 110.721,90.249 106.389 C 89.887 104.595,90.090 99.733,90.590 98.253 C 90.714 97.885,90.857 97.347,90.907 97.058 C 91.459 93.892,93.530 89.728,95.714 87.393 C 98.794 84.100,104.147 82.456,108.112 83.585 " stroke="none" fill="#04040c" fill-rule="evenodd"></path><path id="path2" d="M201.044 71.453 C 201.297 71.491,201.672 71.490,201.877 71.451 C 202.082 71.411,201.875 71.380,201.417 71.381 C 200.958 71.382,200.791 71.415,201.044 71.453 " stroke="none" fill="#040c0c" fill-rule="evenodd"></path><path id="path3" d="" stroke="none" fill="#406028" fill-rule="evenodd"></path><path id="path4" d="" stroke="none" fill="#242028" fill-rule="evenodd"></path></g></svg>