<svg id="svg" version="1.1" xmlns="http://www.w3.org/2000/svg" xmlns:xlink="http://www.w3.org/1999/xlink" width="400" height="134.6411576187239" viewBox="0, 0, 400,134.6411576187239"><g id="svgg"><path id="path0" d="M351.187 0.261 C 344.224 1.531,339.285 6.352,337.073 14.035 C 336.328 16.623,335.900 17.288,334.533 17.981 C 333.458 18.526,332.679 18.559,330.720 18.143 C 319.983 15.867,310.549 21.858,308.899 32.000 C 308.067 37.109,309.995 42.939,313.846 46.958 C 314.348 47.482,314.450 47.667,314.235 47.667 C 313.225 47.667,306.084 49.507,303.917 50.326 C 301.380 51.284,300.598 51.614,299.083 52.365 C 292.854 55.454,288.755 59.939,287.015 65.575 C 286.623 66.842,286.674 67.296,287.219 67.407 C 291.404 68.260,294.932 69.670,297.413 71.484 C 299.141 72.746,299.277 72.675,299.495 70.390 C 300.091 64.133,303.282 60.975,311.873 58.143 C 314.888 57.149,314.953 57.144,314.396 57.958 C 312.435 60.823,311.190 65.333,311.392 68.833 C 312.055 80.281,322.441 87.292,334.080 84.148 C 337.088 83.335,338.488 84.124,340.171 87.578 C 347.582 102.792,367.608 101.642,372.752 85.707 C 373.594 83.099,374.454 82.058,376.232 81.497 C 376.884 81.291,377.191 81.302,380.583 81.663 C 396.643 83.373,405.649 66.068,395.357 53.275 C 392.927 50.254,392.904 48.842,395.236 46.126 C 406.992 32.442,395.277 13.331,377.720 17.552 C 374.229 18.392,372.218 17.548,371.442 14.917 C 369.938 9.818,368.578 7.334,365.840 4.684 C 361.938 0.907,356.554 -0.719,351.187 0.261 M355.655 11.078 C 360.205 12.289,362.126 18.191,360.920 27.250 C 360.270 32.126,361.870 34.867,365.519 35.129 C 367.393 35.264,368.020 34.967,372.500 31.827 C 379.729 26.761,386.759 26.753,388.680 31.809 C 390.200 35.812,387.340 40.055,381.167 42.954 C 377.545 44.654,376.833 45.039,376.230 45.625 C 374.380 47.419,374.156 50.475,375.707 52.758 C 376.293 53.622,376.405 53.691,380.000 55.407 C 387.886 59.174,390.922 64.362,387.658 68.492 C 384.621 72.333,378.866 71.517,371.348 66.181 C 369.854 65.121,369.290 64.915,367.917 64.927 C 363.969 64.964,361.770 68.049,362.578 72.417 C 364.309 81.781,360.789 88.690,354.978 87.334 C 350.663 86.327,348.739 81.942,348.872 73.417 C 348.915 70.720,348.898 70.548,348.526 69.851 C 346.521 66.092,342.427 65.627,338.997 68.769 C 332.744 74.498,326.421 75.635,323.470 71.563 C 320.135 66.958,323.949 61.021,333.213 56.398 C 334.242 55.885,335.310 55.294,335.587 55.086 C 335.923 54.834,336.449 54.668,337.170 54.588 C 337.764 54.521,339.556 54.287,341.152 54.067 C 345.318 53.492,346.850 53.578,348.323 54.468 C 350.011 55.488,351.027 56.003,351.786 56.225 C 360.859 58.873,367.417 47.789,360.755 41.068 C 357.122 37.403,351.793 37.471,347.705 41.235 C 345.613 43.161,345.180 43.329,340.786 43.919 C 339.025 44.156,336.494 44.496,335.162 44.675 C 331.444 45.174,330.979 45.083,326.926 43.054 C 320.111 39.642,317.699 34.365,321.213 30.552 C 324.485 27.003,330.617 28.187,338.647 33.917 C 343.739 37.551,348.928 34.183,347.765 28.000 C 345.702 17.032,349.270 9.379,355.655 11.078 M309.833 88.827 C 305.787 89.570,304.897 89.956,304.241 91.253 C 303.438 92.840,300.580 95.167,299.434 95.167 C 299.108 95.167,298.500 95.748,298.500 96.060 C 298.500 96.185,298.984 96.868,299.575 97.580 C 303.410 102.193,304.158 108.055,301.807 115.092 L 300.969 117.601 301.965 120.009 C 302.513 121.333,303.461 123.617,304.072 125.083 C 304.683 126.550,305.604 128.762,306.119 130.000 C 308.075 134.703,309.947 135.430,314.917 133.421 C 319.728 131.475,320.729 129.498,319.019 125.322 C 317.993 122.816,315.887 117.738,315.083 115.833 C 314.273 113.912,312.568 109.822,311.333 106.833 C 310.897 105.779,310.227 104.167,309.845 103.250 C 309.463 102.333,309.135 101.517,309.116 101.437 C 309.054 101.160,312.986 99.826,314.391 99.647 C 316.499 99.378,317.799 99.641,319.220 100.622 C 320.597 101.573,320.580 102.040,319.063 104.995 C 317.487 108.063,317.830 109.329,320.808 111.439 C 324.571 114.104,326.246 113.488,328.569 108.583 C 332.797 99.658,330.279 93.440,320.948 89.762 C 317.955 88.582,313.301 88.191,309.833 88.827 " stroke="none" fill="#d4e4d4" fill-rule="evenodd"></path><path id="path1" d="M31.833 36.863 C 23.564 37.719,16.700 42.866,14.091 50.167 C 13.348 52.245,13.031 53.333,12.926 54.167 C 12.352 58.713,10.636 65.322,10.020 65.360 C 9.780 65.375,8.681 65.399,7.578 65.412 C 4.586 65.449,2.878 66.084,1.854 67.540 C 1.652 67.828,0.793 70.014,0.838 70.127 C 0.848 70.152,0.767 70.602,0.657 71.127 C 0.548 71.653,0.444 72.158,0.425 72.250 C 0.407 72.342,0.297 72.857,0.180 73.395 C -0.577 76.888,1.613 78.989,5.764 78.753 C 8.287 78.610,8.314 78.662,7.598 82.333 C 7.336 83.676,6.914 85.900,6.664 87.250 C 6.580 87.708,6.245 89.471,5.921 91.167 C 5.185 95.013,3.834 102.166,3.654 103.167 C 3.580 103.579,2.762 107.892,1.835 112.750 C -0.598 125.508,-0.593 125.582,2.917 126.801 C 3.197 126.899,5.766 127.017,8.773 127.072 L 14.129 127.168 15.338 126.759 C 17.188 126.134,18.068 125.005,18.574 122.611 C 18.693 122.046,18.871 121.283,18.970 120.917 C 19.122 120.349,19.528 118.282,19.772 116.833 C 19.871 116.248,20.982 110.407,21.167 109.500 C 21.251 109.087,21.515 107.700,21.754 106.417 C 21.992 105.133,22.292 103.558,22.419 102.917 C 22.615 101.934,23.014 99.834,24.003 94.583 C 24.089 94.125,24.203 93.487,24.255 93.167 C 24.307 92.846,24.456 92.058,24.585 91.417 C 24.715 90.775,24.855 90.063,24.897 89.833 C 24.939 89.604,25.172 88.367,25.416 87.083 C 25.869 84.692,26.433 81.640,26.586 80.750 C 26.885 79.012,26.987 78.985,33.381 79.009 C 39.472 79.032,40.127 78.928,41.332 77.751 C 42.033 77.067,42.833 75.571,42.833 74.945 C 42.833 74.704,42.944 74.224,43.079 73.878 C 44.027 71.446,43.835 68.224,42.674 67.090 C 41.520 65.963,41.019 65.875,35.667 65.847 C 30.345 65.821,29.832 65.775,29.915 65.342 C 29.946 65.182,30.019 64.645,30.077 64.150 C 30.135 63.655,30.292 62.575,30.427 61.750 C 30.561 60.925,30.749 59.770,30.844 59.184 C 30.939 58.597,31.059 57.660,31.110 57.100 C 31.517 52.613,33.279 51.119,38.146 51.138 C 42.282 51.154,43.636 50.115,44.407 46.333 C 45.712 39.941,45.520 38.534,43.205 37.479 C 41.581 36.740,35.967 36.435,31.833 36.863 M58.870 37.002 C 57.740 37.238,56.539 37.983,55.936 38.823 C 55.128 39.948,55.006 40.303,54.587 42.750 C 54.462 43.483,54.320 44.290,54.272 44.543 C 54.141 45.232,53.842 46.849,53.741 47.417 C 53.691 47.692,53.396 49.229,53.084 50.833 C 52.772 52.438,52.172 55.587,51.752 57.833 C 51.331 60.079,50.843 62.667,50.667 63.583 C 50.492 64.500,50.309 65.475,50.262 65.750 C 50.214 66.025,49.988 67.225,49.760 68.417 C 49.531 69.608,49.225 71.221,49.079 72.000 C 48.661 74.242,47.687 79.389,47.251 81.667 C 47.031 82.813,46.583 85.175,46.254 86.917 C 45.925 88.658,45.400 91.433,45.086 93.083 C 44.772 94.733,44.284 97.321,44.002 98.833 C 43.720 100.346,43.343 102.333,43.164 103.250 C 42.610 106.095,42.313 107.654,42.235 108.128 C 42.193 108.378,42.083 108.964,41.990 109.429 C 41.898 109.894,41.785 110.494,41.740 110.762 C 41.695 111.030,41.547 111.813,41.410 112.500 C 41.274 113.188,41.127 113.938,41.083 114.167 C 41.040 114.396,40.895 115.146,40.763 115.833 C 39.230 123.778,39.198 124.104,39.832 125.414 C 40.190 126.152,40.963 126.775,42.000 127.160 C 42.761 127.442,52.923 127.718,53.975 127.485 C 56.622 126.899,57.716 125.340,58.406 121.167 C 58.710 119.330,58.700 119.385,59.353 116.000 C 59.627 114.579,60.116 111.992,60.438 110.250 C 61.368 105.234,61.583 104.096,61.999 102.000 C 62.308 100.441,63.021 96.679,63.690 93.083 C 63.877 92.075,64.284 89.938,64.594 88.333 C 64.904 86.729,65.381 84.217,65.653 82.750 C 65.926 81.283,66.421 78.658,66.753 76.917 C 67.086 75.175,67.572 72.587,67.833 71.167 C 68.095 69.746,68.804 65.996,69.410 62.833 C 70.870 55.214,71.121 53.902,71.510 51.833 C 71.692 50.871,71.947 49.521,72.079 48.833 C 72.388 47.215,72.986 44.035,73.082 43.500 C 74.033 38.186,72.954 37.067,66.833 37.018 C 65.137 37.004,62.813 36.962,61.667 36.923 C 60.521 36.884,59.263 36.919,58.870 37.002 M102.750 69.004 C 102.292 69.075,101.692 69.174,101.417 69.224 C 101.142 69.273,100.167 69.436,99.250 69.587 C 90.672 70.993,82.113 76.828,77.044 84.726 C 76.152 86.116,73.921 90.721,73.652 91.725 C 73.551 92.106,73.409 92.492,73.339 92.583 C 73.268 92.675,73.079 93.350,72.919 94.083 C 72.759 94.817,72.488 95.793,72.317 96.252 C 71.438 98.612,71.137 107.485,71.843 110.235 C 73.350 116.103,76.233 120.528,80.500 123.519 C 83.404 125.554,87.408 127.024,92.250 127.831 C 94.455 128.199,101.864 128.103,103.439 127.686 C 103.793 127.592,104.288 127.480,104.539 127.436 C 113.407 125.885,121.288 120.911,126.412 113.631 C 127.486 112.105,130.000 107.495,130.000 107.052 C 130.000 106.972,130.253 106.306,130.563 105.573 C 130.872 104.839,131.179 103.904,131.245 103.494 C 131.364 102.763,131.568 102.036,132.194 100.117 C 132.860 98.076,133.115 90.821,132.609 88.325 C 132.470 87.642,132.307 86.671,132.246 86.167 C 131.937 83.631,129.360 78.566,127.350 76.545 C 123.048 72.220,118.025 69.854,111.501 69.080 C 109.321 68.822,104.212 68.777,102.750 69.004 M175.167 69.823 C 172.645 70.077,169.711 70.967,167.146 72.255 C 164.983 73.341,162.463 75.002,161.324 76.092 L 160.899 76.500 160.968 75.005 C 161.134 71.456,160.011 70.855,153.000 70.743 C 144.712 70.610,143.714 71.291,142.738 77.750 C 142.683 78.117,142.537 78.867,142.414 79.417 C 142.291 79.967,142.146 80.717,142.092 81.083 C 141.998 81.722,141.852 82.486,141.154 86.000 C 140.981 86.871,140.348 90.208,139.748 93.417 C 139.148 96.625,138.468 100.263,138.236 101.500 C 138.005 102.737,137.591 104.950,137.318 106.417 C 137.044 107.883,136.714 109.608,136.585 110.250 C 136.455 110.892,136.190 112.279,135.996 113.333 C 135.802 114.388,135.539 115.775,135.411 116.417 C 133.516 125.937,133.933 126.997,139.667 127.239 C 140.813 127.287,142.837 127.373,144.167 127.430 C 147.672 127.579,150.041 127.203,150.968 126.349 C 152.405 125.026,152.929 123.316,154.342 115.333 C 154.447 114.737,154.563 114.100,154.599 113.917 C 155.306 110.304,155.727 108.017,156.009 106.250 C 156.989 100.134,158.589 95.244,160.347 92.991 C 164.186 88.071,166.724 86.887,173.846 86.691 L 177.776 86.583 178.591 86.080 C 180.209 85.079,180.696 84.075,181.335 80.417 C 181.527 79.317,181.754 78.079,181.840 77.667 C 181.925 77.254,182.041 76.692,182.097 76.417 C 183.140 71.257,181.012 69.232,175.167 69.823 M272.167 71.002 C 266.707 71.534,261.178 73.446,257.250 76.159 C 255.130 77.623,252.746 80.389,251.633 82.675 C 250.701 84.591,250.170 85.840,250.086 86.318 C 250.044 86.558,249.858 87.193,249.674 87.728 C 249.136 89.293,249.246 93.778,249.864 95.472 C 251.319 99.460,254.448 102.023,259.877 103.671 C 260.815 103.956,262.333 104.420,263.250 104.703 C 264.167 104.986,265.854 105.420,267.000 105.668 C 277.430 107.929,280.605 109.781,279.181 112.777 C 277.797 115.690,274.908 116.966,269.881 116.883 C 265.244 116.807,262.801 115.175,261.853 111.519 C 260.976 108.139,260.311 107.917,251.083 107.917 C 246.982 107.917,246.507 108.024,245.394 109.198 C 243.170 111.545,244.075 118.231,247.187 122.444 C 248.595 124.351,252.237 126.966,254.167 127.455 C 254.302 127.490,255.187 127.818,256.083 128.167 C 258.808 129.226,266.547 130.493,268.750 130.241 C 269.300 130.179,270.313 130.106,271.000 130.080 C 272.845 130.011,275.754 129.700,277.083 129.430 C 277.725 129.299,278.618 129.146,279.067 129.088 C 284.329 128.416,291.286 124.311,294.550 119.953 C 299.649 113.145,300.260 104.440,295.951 100.000 C 293.986 97.975,291.525 96.167,290.733 96.167 C 290.614 96.167,289.931 95.910,289.216 95.596 C 287.325 94.765,284.771 93.946,282.667 93.496 C 282.346 93.428,281.146 93.168,280.000 92.920 C 278.854 92.671,277.804 92.445,277.667 92.418 C 268.854 90.662,265.881 87.196,271.134 84.801 C 274.886 83.090,282.833 84.378,282.833 86.697 C 282.833 88.043,284.636 90.442,286.050 90.978 C 287.418 91.497,297.301 91.510,298.467 90.995 C 303.253 88.879,300.922 78.981,294.627 74.691 C 290.242 71.704,280.827 70.157,272.167 71.002 M191.583 71.736 C 190.544 72.245,189.616 73.188,189.191 74.167 C 188.830 74.999,188.715 75.517,188.010 79.500 C 187.436 82.737,185.399 93.505,184.683 97.083 C 184.408 98.458,184.138 99.846,184.083 100.167 C 184.029 100.487,183.881 101.200,183.755 101.750 C 183.629 102.300,183.478 103.087,183.418 103.500 C 183.359 103.912,183.245 104.550,183.166 104.917 C 180.552 116.999,183.257 124.763,191.167 127.881 C 194.224 129.086,201.553 129.907,203.519 129.265 C 203.646 129.223,204.237 129.143,204.833 129.086 C 206.601 128.919,210.494 127.791,211.901 127.040 C 212.184 126.888,212.454 126.757,212.500 126.749 C 212.738 126.708,214.091 125.874,215.458 124.925 L 217.000 123.856 217.001 124.553 C 217.005 127.782,218.177 128.303,225.583 128.370 C 234.101 128.447,233.799 128.744,235.766 118.333 C 237.155 110.977,237.316 110.127,237.825 107.458 C 238.013 106.473,238.312 104.898,238.489 103.958 C 240.032 95.769,240.714 92.173,240.993 90.750 C 241.172 89.833,241.513 88.033,241.750 86.750 C 242.258 83.998,242.475 82.853,242.682 81.833 C 242.766 81.421,242.878 80.783,242.933 80.417 C 242.987 80.050,243.173 79.075,243.346 78.250 C 244.160 74.377,243.325 72.493,240.570 71.983 C 238.609 71.621,228.686 71.859,227.917 72.287 C 226.173 73.257,225.400 74.538,224.923 77.250 C 224.874 77.525,224.795 77.975,224.747 78.250 C 224.699 78.525,224.585 79.125,224.494 79.583 C 224.403 80.042,224.293 80.604,224.250 80.833 C 224.206 81.063,224.059 81.813,223.923 82.500 C 223.787 83.188,223.643 83.938,223.603 84.167 C 223.535 84.561,222.439 90.378,221.325 96.250 C 218.714 110.020,216.314 113.701,209.417 114.515 C 202.862 115.288,200.331 111.669,202.063 104.000 C 202.115 103.771,202.196 103.304,202.244 102.962 C 202.366 102.087,202.760 99.877,203.144 97.917 C 203.323 97.000,203.593 95.575,203.743 94.750 C 203.893 93.925,204.159 92.537,204.333 91.667 C 204.508 90.796,204.771 89.408,204.918 88.583 C 205.065 87.758,205.291 86.558,205.419 85.917 C 205.547 85.275,205.880 83.550,206.158 82.083 C 207.476 75.124,207.493 74.208,206.322 72.788 C 205.269 71.512,205.257 71.510,198.167 71.409 L 192.417 71.328 191.583 71.736 M108.280 83.639 C 111.141 84.435,112.841 86.224,113.850 89.500 C 114.473 91.520,114.319 97.516,113.595 99.466 C 113.469 99.805,113.240 100.646,113.086 101.333 C 112.932 102.021,112.669 102.883,112.503 103.250 C 111.946 104.474,111.694 105.080,111.591 105.442 C 111.206 106.788,108.389 110.134,106.583 111.391 C 101.219 115.126,93.672 114.355,91.338 109.833 C 91.039 109.253,90.440 107.371,90.250 106.417 C 89.881 104.555,90.081 99.767,90.591 98.250 C 90.715 97.883,90.896 97.208,90.993 96.750 C 91.168 95.931,91.865 93.892,92.531 92.250 C 93.395 90.122,95.553 87.300,97.532 85.712 C 98.533 84.909,100.511 84.048,102.481 83.557 C 103.743 83.243,107.021 83.289,108.280 83.639 " stroke="none" fill="#04040c" fill-rule="evenodd"></path><path id="path2" d="M37.042 65.782 C 37.202 65.823,37.465 65.823,37.625 65.782 C 37.785 65.740,37.654 65.705,37.333 65.705 C 37.012 65.705,36.881 65.740,37.042 65.782 M200.711 71.453 C 200.964 71.491,201.339 71.490,201.544 71.451 C 201.749 71.411,201.542 71.380,201.083 71.381 C 200.625 71.382,200.457 71.415,200.711 71.453 M253.711 107.953 C 253.964 107.991,254.339 107.990,254.544 107.951 C 254.749 107.911,254.542 107.880,254.083 107.881 C 253.625 107.882,253.457 107.915,253.711 107.953 " stroke="none" fill="#040c0c" fill-rule="evenodd"></path><path id="path3" d="" stroke="none" fill="#d8b070" fill-rule="evenodd"></path><path id="path4" d="" stroke="none" fill="#703c70" fill-rule="evenodd"></path></g></svg>